<svg width="224" height="216" viewBox="0 0 224 216" fill="none" xmlns="http://www.w3.org/2000/svg">
<g filter="url(#filter0_f_23_122)">
<path d="M97.7205 127.993V112.484C97.7205 104.486 104.207 98 112.205 98C120.203 98 126.689 104.486 126.689 112.484V127.988" stroke="url(#paint0_linear_23_122)" strokeWidth="18.3" stroke-miterlimit="10"/>
</g>
<path d="M97.7206 127.993V112.484C97.7206 104.486 104.207 98 112.205 98C120.203 98 126.689 104.486 126.689 112.484V127.988" stroke="url(#paint1_linear_23_122)" strokeWidth="12.3" stroke-miterlimit="10"/>
<g filter="url(#filter1_b_23_122)">
<path d="M131.222 118.568H93.188C90.3227 118.568 88 120.89 88 123.756V145.082C88 147.947 90.3227 150.27 93.188 150.27H131.222C134.087 150.27 136.41 147.947 136.41 145.082V123.756C136.41 120.89 134.087 118.568 131.222 118.568Z" fill="url(#paint2_linear_23_122)"/>
<path d="M93.188 119.568H131.222C133.535 119.568 135.41 121.443 135.41 123.756V145.082C135.41 147.395 133.535 149.27 131.222 149.27H93.188C90.875 149.27 89 147.395 89 145.082V123.756C89 121.443 90.875 119.568 93.188 119.568Z" stroke="url(#paint3_linear_23_122)" strokeWidth="2"/>
</g>
<defs>
<filter id="filter0_f_23_122" x="0.570496" y="0.850098" width="223.269" height="215.143" filterUnits="userSpaceOnUse" color-interpolation-filters="sRGB">
<feFlood flood-opacity="0" result="BackgroundImageFix"/>
<feBlend mode="normal" in="SourceGraphic" in2="BackgroundImageFix" result="shape"/>
<feGaussianBlur stdDeviation="44" result="effect1_foregroundBlur_23_122"/>
</filter>
<filter id="filter1_b_23_122" x="70" y="100.568" width="84.4099" height="67.7021" filterUnits="userSpaceOnUse" color-interpolation-filters="sRGB">
<feFlood flood-opacity="0" result="BackgroundImageFix"/>
<feGaussianBlur in="BackgroundImageFix" stdDeviation="9"/>
<feComposite in2="SourceAlpha" operator="in" result="effect1_backgroundBlur_23_122"/>
<feBlend mode="normal" in="SourceGraphic" in2="effect1_backgroundBlur_23_122" result="shape"/>
</filter>
<linearGradient id="paint0_linear_23_122" x1="93.8049" y1="111.036" x2="130.605" y2="111.036" gradientUnits="userSpaceOnUse">
<stop stop-color="#91F4FF"/>
<stop offset="0.5" stop-color="#D67EE2"/>
<stop offset="0.99" stop-color="#9820FF"/>
</linearGradient>
<linearGradient id="paint1_linear_23_122" x1="93.8049" y1="111.036" x2="130.605" y2="111.036" gradientUnits="userSpaceOnUse">
<stop stop-color="#91F4FF"/>
<stop offset="0.5" stop-color="#D67EE2"/>
<stop offset="0.99" stop-color="#9820FF"/>
</linearGradient>
<linearGradient id="paint2_linear_23_122" x1="90.733" y1="148.48" x2="116.511" y2="109.116" gradientUnits="userSpaceOnUse">
<stop stop-color="white" stop-opacity="0.2"/>
<stop offset="1" stop-color="white" stop-opacity="0.49"/>
</linearGradient>
<linearGradient id="paint3_linear_23_122" x1="91.4172" y1="121.061" x2="115.076" y2="159.689" gradientUnits="userSpaceOnUse">
<stop stop-color="white"/>
<stop offset="1" stop-color="white" stop-opacity="0"/>
</linearGradient>
</defs>
</svg>
